<svg width="70" height="70" viewBox="0 0 70 70" fill="none" xmlns="http://www.w3.org/2000/svg">
<rect width="70" height="70" rx="35" fill="black"/>
<path d="M35.9488 12.001C35.3484 11.9765 35.0022 12.3917 34.9837 12.8105C34.9676 13.1746 35.1334 13.4342 35.4726 13.7023C35.8014 13.9622 35.965 14.2748 35.9386 14.6463C35.913 15.0075 35.7048 15.3103 35.3168 15.4615C34.9602 15.6006 34.6723 15.8347 34.5998 16.23C34.5147 16.6939 34.7887 17.1551 35.2658 17.263C35.7157 17.3648 36.0453 17.8639 35.9111 18.3614C35.7665 18.8969 35.3168 19.1487 34.8051 18.9899C34.3595 18.8516 33.8739 19.103 33.7151 19.5586C33.5552 20.0173 33.7811 20.5124 34.2328 20.6833L35.3682 21.1295C35.8426 21.3359 36.062 21.8927 35.8556 22.3671C35.6493 22.8416 35.0961 23.0602 34.6216 22.8538L33.5092 22.321C33.0786 22.1161 32.5645 22.2895 32.34 22.7153C32.1146 23.1427 32.2659 23.6672 32.682 23.9053C32.682 23.9053 34.3878 24.885 35.4642 25.509C35.9487 25.7899 36.0805 26.4343 35.784 26.9071C35.4875 27.38 34.8452 27.535 34.3904 27.2264C33.9355 26.9178 31.7331 25.4212 31.7331 25.4212C31.3376 25.1515 30.7958 25.2421 30.5096 25.6307C30.2214 26.0218 30.2989 26.57 30.6801 26.8665L35.549 30.7439C36.0209 31.1494 36.0753 31.8638 35.6699 32.3357C35.2644 32.8076 34.5555 32.8628 34.0836 32.4573L29.5314 28.2393C29.1811 27.9036 28.6089 27.8958 28.2645 28.2408C27.9222 28.5835 27.9271 29.1459 28.2567 29.4961L34.9746 36.7268C35.4289 37.2541 35.3677 38.0566 34.8403 38.511C34.313 38.9655 33.5158 38.9072 33.0614 38.3798L26.8961 30.6567C26.5987 30.2778 26.0514 30.2023 25.6614 30.4904C25.273 30.7774 25.1841 31.3192 25.4548 31.7144L25.4547 31.7145L32.1321 41.5023C32.5245 42.1261 32.3346 42.9533 31.7107 43.3457C31.0869 43.7381 30.2595 43.5495 29.8671 42.9256L23.9413 32.671C23.7034 32.2529 23.1732 32.0978 22.7451 32.3243C22.3123 32.5533 22.1448 33.0873 22.3672 33.5219L22.3672 33.5219L27.57 44.3076C27.8673 44.9883 27.5526 45.7807 26.872 46.0779C26.1914 46.3752 25.4005 46.0635 25.1033 45.3829L20.7233 34.2258C20.5497 33.7782 20.051 33.5459 19.5945 33.7058C19.1371 33.8659 18.8922 34.3602 19.0375 34.8191L22.0593 44.61C22.2423 45.2924 21.8345 45.9967 21.1522 46.1796C20.4699 46.3626 19.7695 45.9593 19.5866 45.277L17.3069 35.2844C17.2044 34.8127 16.7402 34.5032 16.2631 34.5935C15.7823 34.6845 15.4676 35.1466 15.5513 35.6271L16.3962 41.2292C16.4647 41.8372 16.0148 42.3848 15.4069 42.4534C14.7989 42.5219 14.2585 42.0853 14.19 41.4773L13.77 35.8066C13.7384 35.3273 13.3281 34.9571 12.8451 34.9752C12.3534 34.9936 11.9823 35.405 12.0007 35.8967L12.0032 35.9423C12.5022 48.2087 22.6037 58 34.9919 58C47.6989 58 58 47.6984 58 34.9908C58 22.6036 48.2121 12.5027 35.9488 12.001Z" fill="white"/>
</svg>
