<svg width="70" height="70" viewBox="0 0 70 70" fill="none" xmlns="http://www.w3.org/2000/svg">
<rect width="70" height="70" rx="35" fill="black"/>
<path d="M35.7838 16.0009C35.2878 15.9806 35.0018 16.3236 34.9865 16.6695C34.9732 16.9704 35.1102 17.1848 35.3904 17.4062C35.6621 17.6209 35.7972 17.8792 35.7754 18.1861C35.7542 18.4844 35.5822 18.7346 35.2617 18.8595C34.9671 18.9744 34.7293 19.1678 34.6694 19.4944C34.5991 19.8776 34.8255 20.2585 35.2195 20.3477C35.5912 20.4318 35.8635 20.8441 35.7526 21.255C35.6332 21.6975 35.2617 21.9055 34.839 21.7743C34.4709 21.66 34.0698 21.8677 33.9386 22.244C33.8065 22.623 33.9931 23.032 34.3662 23.1731L35.3042 23.5417C35.6961 23.7122 35.8773 24.1722 35.7068 24.5641C35.5363 24.9561 35.0794 25.1367 34.6874 24.9662L33.7685 24.5261C33.4128 24.3568 32.988 24.5 32.8026 24.8517C32.6164 25.2049 32.7414 25.6381 33.0851 25.8348C33.0851 25.8348 34.4943 26.6441 35.3835 27.1596C35.7837 27.3916 35.8926 27.924 35.6477 28.3146C35.4028 28.7052 34.8721 28.8333 34.4964 28.5784C34.1207 28.3234 32.3012 27.0871 32.3012 27.0871C31.9745 26.8643 31.527 26.9391 31.2905 27.2601C31.0525 27.5833 31.1165 28.0361 31.4314 28.281L35.4535 31.4841C35.8433 31.8191 35.8883 32.4092 35.5534 32.7991C35.2185 33.1889 34.6328 33.2345 34.243 32.8995L30.4825 29.4151C30.1931 29.1378 29.7204 29.1313 29.4359 29.4163C29.1532 29.6994 29.1571 30.164 29.4294 30.4533L34.979 36.4265C35.3543 36.8621 35.3037 37.525 34.8681 37.9004C34.4325 38.2758 33.7739 38.2277 33.3986 37.792L28.3055 31.4121C28.0598 31.0991 27.6077 31.0367 27.2855 31.2747C26.9647 31.5118 26.8912 31.9593 27.1149 32.2858L27.1148 32.2859L32.6309 40.3714C32.955 40.8868 32.7981 41.5701 32.2828 41.8943C31.7674 42.2184 31.0839 42.0626 30.7598 41.5473L25.8646 33.076C25.668 32.7307 25.2301 32.6025 24.8764 32.7897C24.5188 32.9788 24.3805 33.4199 24.5642 33.7789L24.5642 33.7789L28.8622 42.6889C29.1077 43.2512 28.8478 43.9058 28.2856 44.1513C27.7233 44.3969 27.07 44.1394 26.8244 43.5771L23.2062 34.3604C23.0628 33.9907 22.6508 33.7988 22.2737 33.9309C21.8959 34.0632 21.6935 34.4715 21.8136 34.8505L24.3099 42.9387C24.461 43.5024 24.1242 44.0842 23.5605 44.2354C22.9968 44.3865 22.4183 44.0533 22.2672 43.4897L20.384 35.2349C20.2993 34.8453 19.9158 34.5896 19.5217 34.6642C19.1245 34.7394 18.8645 35.1211 18.9337 35.518L19.6316 40.1459C19.6882 40.6481 19.3166 41.1005 18.8144 41.1571C18.3121 41.2137 17.8657 40.8531 17.8091 40.3508L17.4622 35.6663C17.4361 35.2704 17.0972 34.9646 16.6981 34.9795C16.2919 34.9947 15.9853 35.3346 16.0005 35.7408L16.0026 35.7784C16.4148 45.9116 24.7596 54 34.9933 54C45.4904 54 54 45.49 54 34.9924C54 24.7595 45.9143 16.4153 35.7838 16.0009Z" fill="white"/>
</svg>
