<svg width="342" height="342" viewBox="0 0 342 342" fill="none" xmlns="http://www.w3.org/2000/svg">
    <circle cx="171" cy="171" r="155" fill="#141414" />
    <path
        d="M173.928 100.003C172.075 99.9273 171.006 101.209 170.949 102.502C170.899 103.626 171.411 104.427 172.458 105.255C173.473 106.057 173.978 107.022 173.897 108.169C173.818 109.284 173.175 110.219 171.977 110.686C170.876 111.115 169.988 111.837 169.764 113.058C169.501 114.49 170.347 115.913 171.82 116.247C173.208 116.561 174.226 118.101 173.812 119.637C173.365 121.29 171.977 122.068 170.398 121.577C169.022 121.15 167.523 121.926 167.033 123.333C166.539 124.749 167.237 126.277 168.631 126.805L172.136 128.182C173.6 128.819 174.278 130.538 173.64 132.003C173.003 133.467 171.296 134.142 169.831 133.505L166.397 131.86C165.068 131.228 163.481 131.763 162.788 133.077C162.092 134.397 162.559 136.016 163.844 136.751C163.844 136.751 169.109 139.775 172.432 141.701C173.928 142.568 174.335 144.558 173.419 146.017C172.504 147.477 170.521 147.955 169.117 147.003C167.713 146.05 160.914 141.43 160.914 141.43C159.694 140.598 158.021 140.877 157.138 142.077C156.248 143.284 156.487 144.976 157.664 145.892L172.694 157.861C174.151 159.113 174.319 161.318 173.067 162.775C171.816 164.231 169.627 164.402 168.17 163.15L154.118 150.129C153.037 149.093 151.27 149.069 150.207 150.134C149.151 151.192 149.166 152.928 150.183 154.009L170.921 176.33C172.323 177.958 172.134 180.435 170.506 181.838C168.879 183.24 166.418 183.06 165.015 181.432L145.983 157.592C145.065 156.422 143.376 156.189 142.172 157.079C140.973 157.964 140.698 159.637 141.534 160.857L141.534 160.857L162.146 191.071C163.358 192.997 162.771 195.55 160.846 196.762C158.92 197.973 156.366 197.391 155.154 195.465L136.862 163.81C136.127 162.519 134.491 162.04 133.169 162.74C131.833 163.446 131.316 165.095 132.003 166.436L132.003 166.436L148.063 199.731C148.981 201.832 148.01 204.278 145.909 205.196C143.808 206.113 141.366 205.151 140.449 203.05L126.928 168.609C126.392 167.228 124.853 166.511 123.444 167.004C122.032 167.498 121.276 169.024 121.724 170.441L131.052 200.665C131.617 202.771 130.358 204.945 128.252 205.51C126.146 206.075 123.984 204.83 123.419 202.723L116.382 171.877C116.066 170.421 114.633 169.465 113.16 169.744C111.676 170.025 110.704 171.452 110.963 172.935L113.571 190.228C113.782 192.105 112.393 193.796 110.517 194.007C108.64 194.219 106.972 192.871 106.76 190.994L105.464 173.489C105.366 172.009 104.1 170.867 102.609 170.923C101.091 170.979 99.9452 172.25 100.002 173.767L100.01 173.908C101.55 211.773 132.733 241.998 170.974 241.998C210.2 241.998 241.998 210.198 241.998 170.971C241.998 132.733 211.784 101.552 173.928 100.003Z"
        fill="white" />
</svg>